<?xml version="1.0" standalone="no"?>
<!DOCTYPE svg PUBLIC "-//W3C//DTD SVG 20010904//EN"
 "http://www.w3.org/TR/2001/REC-SVG-20010904/DTD/svg10.dtd">
<svg version="1.0" xmlns="http://www.w3.org/2000/svg"
 width="500.000000pt" height="500.000000pt" viewBox="0 0 500.000000 500.000000"
 preserveAspectRatio="xMidYMid meet">

<g transform="translate(0.000000,500.000000) scale(0.100000,-0.100000)"
fill="#000000" stroke="none">
<path d="M2365 4120 c-345 -39 -645 -216 -840 -495 -88 -126 -142 -241 -179
-375 l-31 -115 -3 -767 -3 -768 1166 0 1165 0 0 769 0 769 -26 98 c-102 394
-422 728 -804 838 -143 42 -319 60 -445 46z m321 -115 c195 -41 377 -140 534
-291 210 -202 325 -461 331 -744 2 -125 2 -126 -28 -138 -117 -43 -560 -199
-629 -222 l-86 -28 -52 30 c-97 57 -96 42 -10 159 43 57 88 119 101 137 18 23
32 32 54 32 19 0 29 -5 29 -14 0 -18 38 -46 61 -46 31 0 62 35 62 68 0 68 -64
94 -115 45 -37 -36 -48 -22 -14 19 14 18 41 52 59 75 22 30 40 42 57 43 42 0
70 27 70 65 0 24 -7 39 -22 49 -51 36 -98 7 -98 -59 0 -35 -7 -50 -40 -86
l-39 -44 -1 200 c0 188 1 202 20 218 28 24 27 81 -2 101 -31 22 -64 20 -88 -4
-29 -29 -25 -67 10 -100 l30 -28 0 -214 c0 -196 -2 -215 -20 -243 -11 -16 -30
-45 -41 -62 -12 -18 -25 -33 -30 -33 -5 0 -9 100 -9 230 0 198 -2 230 -15 230
-13 0 -15 -36 -15 -261 l0 -261 -54 -73 c-40 -55 -56 -71 -65 -62 -7 7 -11 55
-11 132 0 109 2 121 20 133 19 12 20 23 20 261 0 275 -2 285 -58 265 l-27 -9
-3 -240 c-2 -155 1 -252 8 -275 6 -19 10 -81 8 -138 l-3 -103 -42 31 -43 32 0
431 1 432 38 18 c51 23 75 72 68 136 -12 106 -145 148 -218 68 -35 -38 -45
-83 -29 -131 12 -37 61 -86 86 -86 12 0 14 -65 14 -434 l0 -434 -39 -31 c-21
-17 -42 -31 -45 -31 -10 0 -7 228 4 235 15 9 13 508 -2 523 -16 16 -53 15 -67
-2 -9 -10 -12 -84 -12 -258 1 -231 2 -244 21 -260 19 -15 20 -26 18 -140 -2
-86 -7 -123 -15 -123 -6 0 -34 30 -62 67 l-51 67 0 271 c0 213 -3 271 -12 268
-10 -4 -14 -66 -18 -248 l-5 -244 -47 64 -48 64 0 222 0 222 24 15 c40 27 42
93 2 119 -25 17 -65 8 -86 -19 -24 -31 -20 -65 11 -99 17 -19 19 -36 19 -220
l-1 -199 -39 45 c-33 38 -39 52 -40 89 0 78 -55 107 -106 56 -19 -19 -23 -31
-18 -48 11 -36 35 -57 68 -57 26 0 37 -9 63 -48 18 -26 43 -59 55 -74 29 -37
15 -49 -16 -15 -30 32 -68 35 -96 7 -39 -39 -21 -103 32 -116 23 -5 33 0 57
25 50 54 64 46 174 -100 54 -72 96 -137 93 -144 -2 -7 -31 -29 -64 -49 l-59
-36 -204 71 c-112 39 -280 97 -374 129 l-170 58 -3 83 c-4 114 13 224 54 348
91 274 271 492 514 624 104 56 269 113 370 126 93 12 248 6 346 -14z m864
-1415 c0 -137 -3 -180 -12 -180 -84 -2 -367 -36 -488 -59 -85 -16 -176 -32
-202 -36 l-48 -7 0 76 0 76 58 1 c31 1 67 4 80 7 21 7 20 8 -18 32 -22 14 -40
27 -40 31 0 3 57 25 128 48 143 47 449 156 496 177 17 7 34 13 39 14 4 0 7
-81 7 -180z m-2054 144 c38 -15 186 -66 329 -114 l260 -88 -34 -18 c-18 -11
-43 -27 -55 -36 -20 -17 -18 -17 72 -18 l92 0 0 -76 0 -75 -47 7 c-27 3 -115
19 -198 35 -82 16 -228 36 -323 44 -95 8 -177 17 -182 20 -6 4 -10 79 -10 176
0 137 3 169 14 169 7 0 45 -12 82 -26z m1016 -274 c48 -14 88 -64 88 -111 -2
-123 -172 -165 -224 -55 -35 75 -6 143 74 169 22 8 22 8 62 -3z m-812 -145
c52 -8 176 -30 275 -48 178 -33 180 -34 183 -60 4 -31 -6 -33 -123 -17 -47 6
-110 6 -190 -2 -101 -9 -139 -8 -241 6 -66 9 -139 16 -162 16 l-42 0 0 54 c0
44 4 55 18 59 39 10 193 6 282 -8z m1828 9 c19 -6 22 -13 22 -60 l0 -54 -42 0
c-23 0 -96 -7 -161 -16 -100 -14 -139 -15 -236 -5 -78 7 -139 8 -186 1 -117
-16 -127 -14 -123 17 3 30 -20 24 418 103 103 18 264 25 308 14z m-1873 -274
c44 0 143 9 220 20 152 21 251 24 358 11 78 -10 81 -12 73 -39 -6 -17 -18 -18
-174 -18 -105 0 -211 -6 -285 -17 -134 -19 -233 -21 -327 -7 -123 19 -120 18
-120 54 l0 33 88 -18 c48 -10 123 -19 167 -19z m1465 15 c150 -23 292 -16 413
21 14 4 17 -1 17 -29 0 -34 -1 -36 -52 -47 -102 -23 -234 -23 -428 0 -146 17
-210 21 -302 15 l-118 -7 0 26 c0 21 6 26 33 30 17 3 43 8 57 10 46 8 284 -3
380 -19z m-550 -102 c0 -5 9 -60 20 -123 29 -167 41 -150 -110 -150 -71 0
-130 3 -130 8 0 4 9 67 21 140 l22 132 89 0 c48 0 88 -3 88 -7z m-288 -28 c3
-3 3 -17 0 -30 -4 -22 -10 -25 -46 -25 -74 0 -229 -29 -356 -66 -152 -44 -255
-62 -380 -66 l-95 -3 0 25 c0 25 1 25 110 31 122 7 151 13 345 69 130 37 220
56 305 63 74 7 112 7 117 2z m533 -6 c73 -7 166 -27 280 -59 208 -59 265 -70
372 -70 82 0 83 0 83 -25 0 -28 3 -27 -110 -25 -102 1 -221 23 -365 65 -122
36 -276 65 -351 65 -42 0 -54 11 -54 46 0 17 7 17 145 3z"/>
<path d="M1270 1367 c0 -20 90 -202 100 -202 7 0 34 46 61 103 46 99 47 102
25 102 -28 0 -37 -10 -62 -72 -10 -27 -22 -48 -25 -48 -4 0 -15 26 -26 58 -16
49 -23 57 -46 60 -15 2 -27 1 -27 -1z"/>
<path d="M2068 1278 c-4 -109 -2 -118 23 -118 17 0 19 9 19 105 0 97 -1 105
-19 105 -18 0 -20 -9 -23 -92z"/>
<path d="M2290 1266 l0 -106 70 0 c68 0 70 1 70 25 0 23 -4 25 -45 25 l-44 0
-3 78 c-3 71 -5 77 -25 80 -23 3 -23 2 -23 -102z"/>
<path d="M2722 1268 l3 -103 73 -3 c71 -3 72 -3 72 23 0 23 -3 25 -50 25 l-50
0 0 80 c0 79 0 80 -25 80 l-26 0 3 -102z"/>
<path d="M3537 1338 c-8 -18 -26 -61 -41 -95 -14 -34 -26 -67 -26 -73 0 -17
37 -11 51 9 8 11 31 23 51 27 34 5 39 3 49 -20 8 -17 20 -26 35 -26 l23 0 -21
53 c-60 155 -61 157 -89 157 -12 0 -24 -12 -32 -32z m53 -75 c0 -7 -9 -13 -20
-13 -23 0 -24 4 -9 32 9 17 13 18 20 7 5 -8 9 -20 9 -26z"/>
<path d="M1504 1047 c-3 -8 -4 -54 -2 -103 3 -84 4 -89 26 -92 20 -3 22 1 22
37 l0 41 41 0 c33 0 40 3 37 18 -2 12 -14 18 -41 20 -29 3 -37 7 -37 23 0 16
7 19 45 19 41 0 45 2 45 25 0 24 -2 25 -65 25 -45 0 -67 -4 -71 -13z"/>
<path d="M1838 1008 c-8 -109 21 -158 92 -158 60 0 80 33 80 131 0 72 -2 79
-20 79 -18 0 -20 -7 -20 -69 0 -71 -14 -101 -45 -101 -31 0 -45 30 -45 101 0
61 -2 69 -19 69 -16 0 -20 -9 -23 -52z"/>
<path d="M2253 1040 c-68 -41 -72 -121 -9 -172 43 -35 159 -13 128 25 -10 12
-19 13 -41 4 -40 -15 -81 12 -81 53 0 42 25 62 74 58 32 -2 41 1 44 14 2 12
-6 21 -23 28 -38 14 -56 12 -92 -10z"/>
<path d="M2585 1035 c-14 -13 -25 -30 -25 -37 0 -27 31 -57 65 -64 25 -4 35
-11 35 -25 0 -21 -29 -26 -60 -9 -13 7 -21 5 -31 -6 -33 -40 83 -62 121 -24
37 37 18 78 -48 101 -45 15 -43 42 2 37 46 -5 67 24 30 41 -38 17 -63 13 -89
-14z"/>
<path d="M2970 955 c0 -105 0 -106 23 -103 21 3 22 7 22 103 0 96 -1 100 -22
103 -23 3 -23 2 -23 -103z"/>
<path d="M3304 1003 c-44 -98 -64 -144 -64 -149 0 -2 11 -4 24 -4 16 0 27 7
31 20 9 29 87 29 107 -1 7 -12 21 -20 30 -18 15 4 12 17 -24 107 -50 124 -65
131 -104 45z m66 -65 c0 -4 -9 -8 -20 -8 -21 0 -24 8 -13 36 6 16 7 16 20 -2
7 -10 13 -21 13 -26z"/>
</g>
</svg>
